<?xml version="1.0" encoding="UTF-8"?>
<svg width="921px" height="169px" viewBox="0 0 921 169" version="1.1" xmlns="http://www.w3.org/2000/svg" xmlns:xlink="http://www.w3.org/1999/xlink">
    <!-- Generator: Sketch 55.2 (78181) - https://sketchapp.com -->
    <title>logo</title>
    <desc>Created with Sketch.</desc>
    <g id="Page-1" stroke="none" stroke-width="1" fill="none" fill-rule="evenodd">
        <g id="logo" fill="#FFFFFF" fill-rule="nonzero">
            <path d="M232.322352,141.267318 C246.823387,141.243204 255.779909,129.756913 255.779909,112.692254 C255.779909,95.61152 246.847529,84.1573806 232.362588,84.1573806 C217.877648,84.1573806 208.985504,95.57133 208.985504,112.692254 C208.985504,129.797103 217.861553,141.243204 232.322352,141.267318 Z M243.186058,56.4664961 C270.828153,56.4664961 289.055036,80.2589542 289.457396,112.290355 C289.457396,144.844225 270.385557,168.958202 242.421575,168.958202 C228.347041,169.271684 215.133556,162.214327 207.577246,150.35025 L207.13465,150.35025 L207.13465,166.868324 L176.796747,166.868324 L176.796747,21.862938 C176.796747,10.8106981 184.159925,3.89802451 192.891125,3.89802451 C201.622326,3.89802451 208.985504,10.8106981 208.985504,21.862938 L208.985504,73.5472303 L209.428099,73.5472303 C217.229849,62.7079973 229.8237,56.3378882 243.186058,56.4664961 Z M354.881044,141.267318 C369.406221,141.267318 378.258129,129.772989 378.258129,112.692254 C378.258129,95.61152 369.406221,84.1573806 354.881044,84.1573806 C340.355868,84.1573806 331.503959,95.57133 331.503959,112.692254 C331.503959,129.813179 340.355868,141.267318 354.881044,141.267318 Z M354.881044,56.4664961 C389.081598,56.4664961 411.211368,79.8168646 411.211368,112.732444 C411.211368,145.648024 389.121834,168.998392 354.881044,168.998392 C320.640254,168.998392 298.55072,145.648024 298.55072,112.732444 C298.55072,79.8168646 320.640254,56.4664961 354.881044,56.4664961 Z M784.804542,56.4681037 C793.652426,56.4681037 801.015604,63.3807773 801.176548,74.4330171 L801.176548,166.869932 L768.710163,166.869932 L768.710163,74.4330171 C768.710163,63.3807773 775.912397,56.4681037 784.804542,56.4681037 Z M784.804542,0 C795.692389,0 804.516132,8.81767788 804.516132,19.6930819 C804.516132,30.5684858 795.692389,39.3861637 784.804542,39.3861637 L784.792471,39.3861637 C773.904624,39.3821447 765.080881,30.5644668 765.084903,19.6890629 C765.084903,8.81365888 773.916695,0 784.804542,0 Z M886.35685,56.4681037 C908.893004,56.4681037 921,72.4596899 921,96.6982566 L921,166.869932 L888.529592,166.869932 L888.529592,105.781188 C888.529592,91.5137514 881.810189,86.7713358 873.364663,86.7713358 C860.807025,86.7713358 851.271106,97.341296 851.271106,119.847675 L851.271106,166.869932 L818.800697,166.869932 L818.800697,73.4282681 C818.800697,62.8181178 825.761516,56.5484836 833.969649,56.5484836 C842.181805,56.5484836 849.098364,62.8181178 849.098364,73.4282681 L849.098364,77.4472643 L849.544983,77.4472643 C857.246144,64.4498303 871.236182,56.4761417 886.35685,56.4681037 Z M698.576093,141.267318 C713.101269,141.267318 721.993413,129.772989 721.993413,112.692254 C721.993413,95.61152 713.065057,84.1573806 698.576093,84.1573806 C684.091152,84.1573806 675.199008,95.57133 675.199008,112.692254 C675.199008,129.813179 684.091152,141.267318 698.576093,141.267318 Z M698.576093,56.4664961 C732.820906,56.4664961 754.906417,79.8168646 754.906417,112.732444 C754.906417,145.648024 732.820906,168.998392 698.576093,168.998392 C664.335303,168.998392 642.245768,145.648024 642.245768,112.732444 C642.245768,79.8168646 664.375539,56.4664961 698.576093,56.4664961 Z M594.20606,84.6010778 C580.123479,84.6010778 571.472751,94.9700882 571.472751,112.734052 C571.472751,130.498015 580.123479,140.867026 594.20606,140.867026 C602.277391,141.196584 609.869914,137.032903 613.91765,130.055926 L614.324033,130.055926 L637.942534,145.207542 C629.734401,161.203147 612.589864,169 593.115666,169 C559.321495,169 538.519511,145.645613 538.519511,112.734052 C538.519511,79.8184722 559.321495,56.4681037 593.115666,56.4681037 C612.589864,56.4681037 629.895345,64.1845766 637.942534,80.2605618 L614.324033,95.4081588 L613.91765,95.4081588 C609.869914,88.4311812 602.277391,84.2715201 594.20606,84.6010778 Z M491.765744,56.4681037 C514.297874,56.4681037 526.40487,72.4596899 526.489366,96.6982566 L526.489366,166.869932 L494.018957,166.869932 L494.018957,105.781188 C494.018957,91.5137514 487.299554,86.7713358 478.850006,86.7713358 C466.29639,86.7713358 456.760471,97.341296 456.760471,119.847675 L456.760471,166.869932 L424.249827,166.869932 L424.249827,73.3478881 C424.249827,62.7377379 431.089938,56.5484836 439.338307,56.5484836 C447.586675,56.5484836 454.507258,62.8181178 454.507258,73.4282681 L454.507258,77.4472643 L454.949854,77.4472643 C462.64699,64.4417923 476.641052,56.4681037 491.765744,56.4681037 Z M88.4788453,106.301246 C88.5754116,110.420718 89.3077058,114.504018 90.6515864,118.402444 L126.863938,91.5917199 C123.588732,85.5551875 117.155004,81.9099578 110.286728,82.1872686 C100.026562,82.1872686 88.4788453,89.9037415 88.4788453,106.301246 Z M119.943355,142.472213 C131.680181,141.801041 142.205904,135.025013 147.665922,124.631888 L169.031209,140.060815 C160.863312,156.65927 144.205631,168.957399 116.040468,168.957399 C102.714323,168.933285 89.8468675,164.078337 79.8281169,155.292811 C65.6650639,164.697263 53.5942801,168.716259 41.5234963,168.716259 C17.180749,168.716259 0,152.439324 0,128.003826 L0,21.5808044 C0,10.5687546 7.32294218,3.65608093 16.0943784,3.65608093 C24.8658146,3.65608093 32.1887568,10.5687546 32.1887568,21.5808044 L32.1887568,125.311099 C32.1887568,135.760489 36.7756547,141.387084 46.3920458,141.387084 C51.6227188,141.387084 57.2959872,138.372837 64.6591653,134.353841 C61.1425436,125.998347 59.3641148,117.01589 59.4284923,107.949035 C59.4284923,85.000566 75.8045223,56.4697113 110.206256,56.4697113 C140.021092,56.4697113 156.034999,73.7875663 162.714166,95.5303363 L105.297471,136.688877 C109.23657,140.454677 114.491384,142.532498 119.943355,142.472213 Z" id="Logo_Lbc"></path>
        </g>
    </g>
</svg>