<?xml version="1.0" encoding="UTF-8" standalone="no"?>
<svg
   xmlns:dc="http://purl.org/dc/elements/1.1/"
   xmlns:cc="http://creativecommons.org/ns#"
   xmlns:rdf="http://www.w3.org/1999/02/22-rdf-syntax-ns#"
   xmlns:svg="http://www.w3.org/2000/svg"
   xmlns="http://www.w3.org/2000/svg"
   xmlns:sodipodi="http://sodipodi.sourceforge.net/DTD/sodipodi-0.dtd"
   xmlns:inkscape="http://www.inkscape.org/namespaces/inkscape"
   viewBox="0 0 1119.9336 221.96881"
   height="221.96881"
   width="1119.9336"
   xml:space="preserve"
   id="svg2"
   version="1.1"
   sodipodi:docname="LOGO-BONCOIN-BLANC.svg"
   inkscape:version="0.92.3 (d244b95, 2018-08-02)"><sodipodi:namedview
     pagecolor="#ffffff"
     bordercolor="#666666"
     borderopacity="1"
     objecttolerance="10"
     gridtolerance="10"
     guidetolerance="10"
     inkscape:pageopacity="0"
     inkscape:pageshadow="2"
     inkscape:window-width="1920"
     inkscape:window-height="1164"
     id="namedview30"
     showgrid="false"
     inkscape:pagecheckerboard="true"
     inkscape:zoom="0.29733907"
     inkscape:cx="561.26001"
     inkscape:cy="114.34756"
     inkscape:window-x="1920"
     inkscape:window-y="0"
     inkscape:window-maximized="1"
     inkscape:current-layer="svg2"
     fit-margin-top="0"
     fit-margin-left="0"
     fit-margin-right="0"
     fit-margin-bottom="0" /><metadata
     id="metadata8"><rdf:RDF><cc:Work
         rdf:about=""><dc:format>image/svg+xml</dc:format><dc:type
           rdf:resource="http://purl.org/dc/dcmitype/StillImage" /><dc:title></dc:title></cc:Work></rdf:RDF></metadata><defs
     id="defs6"><clipPath
       id="clipPath18"
       clipPathUnits="userSpaceOnUse"><path
         id="path16"
         d="M 0,595.28 H 841.89 V 0 H 0 Z"
         inkscape:connector-curvature="0" /></clipPath></defs><g
     transform="matrix(1.3333333,0,0,-1.3333333,0,504.47458)"
     id="g10"><g
       id="g12"><g
         clip-path="url(#clipPath18)"
         id="g14"><g
           transform="translate(356.8989,267.2393)"
           id="g20"><path
             id="path22"
             style="fill:#ffffff;fill-opacity:1;fill-rule:nonzero;stroke:none"
             d="m 0,0 c -0.889,-2.521 -2.101,-4.672 -3.631,-6.45 -1.534,-1.777 -3.335,-3.162 -5.411,-4.151 -2.074,-0.987 -4.349,-1.481 -6.818,-1.481 -5.04,0 -9.19,1.853 -12.45,5.558 -3.261,3.705 -4.893,8.622 -4.893,14.75 0,2.963 0.445,5.705 1.335,8.226 0.889,2.519 2.098,4.668 3.631,6.447 1.531,1.78 3.359,3.163 5.485,4.151 2.124,0.987 4.421,1.481 6.892,1.481 4.941,0 9.042,-1.852 12.303,-5.558 C -0.296,19.268 1.334,14.352 1.334,8.226 1.334,5.26 0.89,2.518 0,0 m 14.824,36.463 c -3.558,3.705 -7.907,6.671 -13.045,8.894 -5.139,2.221 -11.02,3.334 -17.639,3.334 -6.621,0 -12.524,-1.113 -17.714,-3.334 -5.186,-2.223 -9.56,-5.189 -13.116,-8.894 -3.559,-3.705 -6.253,-8.006 -8.08,-12.895 -1.829,-4.892 -2.742,-10.005 -2.742,-15.342 0,-5.337 0.913,-10.45 2.742,-15.342 1.827,-4.893 4.521,-9.19 8.08,-12.895 3.556,-3.708 7.93,-6.649 13.116,-8.821 5.19,-2.172 11.093,-3.261 17.714,-3.261 6.619,0 12.526,1.089 17.713,3.261 5.189,2.172 9.56,5.113 13.118,8.821 3.558,3.705 6.25,8.002 8.079,12.895 1.828,4.892 2.742,10.005 2.742,15.342 0,5.337 -0.94,10.45 -2.815,15.342 -1.879,4.889 -4.595,9.19 -8.153,12.895"
             inkscape:connector-curvature="0" /></g><g
           transform="translate(530.0264,257.3076)"
           id="g24"><path
             id="path26"
             style="fill:#ffffff;fill-opacity:1;fill-rule:nonzero;stroke:none"
             d="m 0,0 c -2.471,-1.436 -5.188,-2.15 -8.153,-2.15 -2.371,0 -4.62,0.494 -6.744,1.481 -2.126,0.988 -3.979,2.374 -5.558,4.15 -1.583,1.779 -2.816,3.929 -3.706,6.451 -0.889,2.517 -1.334,5.309 -1.334,8.373 0,6.126 1.653,11.017 4.966,14.674 3.309,3.656 7.433,5.484 12.376,5.484 5.929,0 10.424,-2.47 13.488,-7.411 l 23.124,6.966 C 25.395,44.146 20.8,49.111 14.675,52.915 8.547,56.719 0.986,58.623 -8.004,58.623 c -6.622,0 -12.525,-1.088 -17.714,-3.26 -5.187,-2.175 -9.559,-5.116 -13.118,-8.822 -3.558,-3.705 -6.276,-8.002 -8.152,-12.895 -1.879,-4.891 -2.816,-10.004 -2.816,-15.341 0,-5.337 0.937,-10.451 2.816,-15.342 1.876,-4.89 4.618,-9.19 8.226,-12.895 3.607,-3.705 8.005,-6.671 13.192,-8.894 5.188,-2.225 11.044,-3.335 17.566,-3.335 8.99,0 16.624,1.927 22.901,5.782 6.274,3.853 10.843,8.794 13.71,14.82 L 5.483,5.558 C 4.299,3.282 2.469,1.43 0,0"
             inkscape:connector-curvature="0" /></g><g
           transform="translate(621.4824,267.2393)"
           id="g28"><path
             id="path30"
             style="fill:#ffffff;fill-opacity:1;fill-rule:nonzero;stroke:none"
             d="m 0,0 c -0.89,-2.521 -2.101,-4.672 -3.632,-6.45 -1.533,-1.777 -3.335,-3.162 -5.41,-4.151 -2.075,-0.987 -4.35,-1.481 -6.818,-1.481 -5.04,0 -9.19,1.853 -12.452,5.558 -3.26,3.705 -4.89,8.622 -4.89,14.75 0,2.963 0.444,5.705 1.334,8.226 0.889,2.519 2.097,4.668 3.632,6.447 1.53,1.78 3.357,3.163 5.483,4.151 2.124,0.987 4.422,1.481 6.893,1.481 4.939,0 9.042,-1.852 12.302,-5.558 C -0.296,19.268 1.334,14.352 1.334,8.226 1.334,5.26 0.89,2.518 0,0 m 22.975,23.568 c -1.878,4.889 -4.595,9.19 -8.153,12.895 -3.556,3.705 -7.907,6.671 -13.043,8.894 -5.139,2.221 -11.02,3.334 -17.639,3.334 -6.622,0 -12.526,-1.113 -17.713,-3.334 -5.189,-2.223 -9.561,-5.189 -13.119,-8.894 -3.556,-3.705 -6.251,-8.006 -8.078,-12.895 -1.829,-4.892 -2.742,-10.005 -2.742,-15.342 0,-5.337 0.913,-10.45 2.742,-15.342 1.827,-4.893 4.522,-9.19 8.078,-12.895 3.558,-3.708 7.93,-6.649 13.119,-8.821 5.187,-2.172 11.091,-3.261 17.713,-3.261 6.619,0 12.524,1.089 17.713,3.261 5.188,2.172 9.56,5.113 13.118,8.821 3.558,3.705 6.248,8.002 8.078,12.895 1.828,4.892 2.743,10.005 2.743,15.342 0,5.337 -0.941,10.45 -2.817,15.342"
             inkscape:connector-curvature="0" /></g><g
           transform="translate(139.897,282.876)"
           id="g32"><path
             id="path34"
             style="fill:#ffffff;fill-opacity:1;fill-rule:nonzero;stroke:none"
             d="m 0,0 c 0.494,4.84 2.249,8.72 5.263,11.637 3.012,2.914 6.842,4.371 11.487,4.371 4.546,0 8.349,-1.433 11.413,-4.298 C 31.226,8.843 33.005,4.94 33.5,0 Z m 55.808,8.152 c -1.828,4.84 -4.521,9.116 -8.078,12.821 -3.558,3.706 -7.907,6.646 -13.043,8.822 -5.141,2.172 -11.02,3.26 -17.64,3.26 -6.621,0 -12.526,-1.088 -17.713,-3.26 -5.188,-2.176 -9.56,-5.141 -13.118,-8.896 -3.558,-3.756 -6.277,-8.128 -8.153,-13.118 -1.878,-4.99 -2.815,-10.3 -2.815,-15.934 0,-4.544 0.708,-8.919 2.121,-13.126 -1.157,-1.7 -2.709,-3.138 -4.697,-4.289 -2.471,-1.436 -5.188,-2.151 -8.152,-2.151 -2.372,0 -4.621,0.494 -6.746,1.482 -2.125,0.988 -3.978,2.374 -5.557,4.15 -0.706,0.792 -1.898,2.462 -1.898,8.668 v 77.338 c 0,0.019 0.003,0.037 0.003,0.055 0,6.542 -5.304,11.845 -11.846,11.845 -6.526,0 -11.818,-5.28 -11.843,-11.799 h -0.031 v -83.845 c 0,-7.008 4.246,-12.53 7.308,-15.675 3.607,-3.705 8.006,-6.671 13.192,-8.895 1.716,-0.735 3.513,-1.337 5.376,-1.83 3.766,-0.996 7.825,-1.504 12.19,-1.504 8.99,0 16.624,1.926 22.901,5.782 1.15,0.706 2.224,1.462 3.26,2.241 2.595,-1.893 5.456,-3.528 8.653,-4.836 5.188,-2.123 11.043,-3.187 17.565,-3.187 8.991,0 16.699,1.926 23.124,5.782 6.423,3.852 11.165,8.843 14.229,14.97 l -20.158,5.632 c -0.649,-1.71 -1.675,-3.208 -3.077,-4.494 -0.951,-0.872 -2.076,-1.646 -3.372,-2.324 -3.212,-1.681 -6.546,-2.519 -10.005,-2.519 -4.35,0 -8.226,1.356 -11.635,4.074 -3.409,2.717 -5.314,6.696 -5.708,11.934 h 57.513 c 0.196,0.985 0.345,2.15 0.445,3.482 0.097,1.334 0.147,2.692 0.147,4.076 0,5.337 -0.914,10.426 -2.742,15.268"
             inkscape:connector-curvature="0" /></g><g
           transform="translate(404.7861,314.4678)"
           id="g36"><path
             id="path38"
             style="fill:#ffffff;fill-opacity:1;fill-rule:nonzero;stroke:none"
             d="M 0,0 C -0.128,0 -0.251,-0.015 -0.378,-0.019 H 0.378 C 0.251,-0.015 0.128,0 0,0"
             inkscape:connector-curvature="0" /></g><g
           transform="translate(415.4487,303.3486)"
           id="g40"><path
             id="path42"
             style="fill:#ffffff;fill-opacity:1;fill-rule:nonzero;stroke:none"
             d="m 0,0 v -1.944 c 2.865,4.643 6.916,8.226 12.156,10.747 5.235,2.519 11.263,3.779 18.082,3.779 5.04,0 9.116,-0.914 12.229,-2.742 3.112,-1.83 5.507,-4.201 7.188,-7.115 1.681,-2.917 2.792,-6.104 3.337,-9.561 0.541,-3.46 0.813,-6.818 0.813,-10.079 V -68.117 H 30.089 v 45.126 c 0,5.135 -0.963,8.867 -2.889,11.189 -1.928,2.322 -4.472,3.485 -7.634,3.485 -1.681,0 -3.386,-0.347 -5.113,-1.037 -1.732,-0.694 -3.362,-1.657 -4.892,-2.893 -1.534,-1.235 -2.941,-2.692 -4.225,-4.371 -1.286,-1.683 -2.275,-3.509 -2.964,-5.486 v -46.013 h -23.717 v 68.414 0.27 c 0.072,5.712 4.621,10.334 10.304,10.534 h 0.756 C -4.704,10.904 -0.224,6.437 0,0.865 Z"
             inkscape:connector-curvature="0" /></g><g
           transform="translate(266.4824,267.2393)"
           id="g44"><path
             id="path46"
             style="fill:#ffffff;fill-opacity:1;fill-rule:nonzero;stroke:none"
             d="m 0,0 c -0.89,-2.423 -2.149,-4.521 -3.78,-6.301 -1.631,-1.778 -3.609,-3.186 -5.929,-4.225 -2.322,-1.037 -4.868,-1.556 -7.635,-1.556 -3.26,0 -6.373,0.963 -9.336,2.89 -2.966,1.928 -5.288,4.57 -6.969,7.931 v 16.305 c 1.681,3.852 4.077,7.064 7.19,9.635 3.113,2.567 6.545,3.852 10.302,3.852 2.568,0 4.914,-0.543 7.04,-1.629 2.125,-1.089 3.978,-2.57 5.559,-4.447 1.579,-1.878 2.791,-4.076 3.631,-6.595 C 0.913,13.339 1.334,10.695 1.334,7.929 1.334,5.061 0.889,2.42 0,0 m 23.122,23.862 c -1.681,4.991 -4.001,9.313 -6.966,12.972 -2.964,3.653 -6.499,6.545 -10.597,8.671 -4.103,2.122 -8.623,3.186 -13.563,3.186 -5.929,0 -11.043,-1.259 -15.342,-3.779 -4.299,-2.52 -7.733,-6.005 -10.303,-10.449 v 45.048 h -0.014 c 0,0.034 0.006,0.065 0.006,0.099 0,6.542 -5.304,11.846 -11.845,11.846 -6.543,0 -11.846,-5.304 -11.846,-11.846 0,-0.034 0.005,-0.065 0.005,-0.099 h -0.021 V -32.008 h 0.675 v -0.013 h 22.9 v 10.183 c 2.131,-2.613 4.667,-4.778 7.627,-6.475 4.395,-2.519 9.56,-3.78 15.49,-3.78 5.137,0 9.931,1.016 14.377,3.04 4.447,2.025 8.301,4.84 11.562,8.448 3.26,3.606 5.803,7.857 7.634,12.747 1.827,4.892 2.742,10.155 2.742,15.787 0,5.634 -0.84,10.943 -2.521,15.933"
             inkscape:connector-curvature="0" /></g><g
           transform="translate(720.6797,303.4951)"
           id="g48"><path
             id="path50"
             style="fill:#ffffff;fill-opacity:1;fill-rule:nonzero;stroke:none"
             d="m 0,0 v -1.945 c 2.864,4.644 6.915,8.226 12.155,10.748 5.236,2.518 11.264,3.779 18.082,3.779 5.04,0 9.117,-0.914 12.23,-2.742 3.111,-1.831 5.507,-4.202 7.187,-7.116 1.682,-2.917 2.792,-6.104 3.337,-9.561 0.541,-3.46 0.814,-6.818 0.814,-10.079 V -68.118 H 30.089 v 45.126 c 0,5.135 -0.963,8.868 -2.89,11.189 -1.928,2.323 -4.471,3.485 -7.634,3.485 -1.68,0 -3.385,-0.347 -5.113,-1.037 -1.731,-0.693 -3.361,-1.657 -4.891,-2.892 C 8.026,-13.483 6.619,-14.94 5.337,-16.618 4.05,-18.302 3.061,-20.127 2.371,-22.105 V -68.118 H -21.345 V 0.297 0.566 c 0.071,5.713 4.62,10.334 10.304,10.534 h 0.756 C -4.704,10.904 -0.224,6.437 0,0.864 Z"
             inkscape:connector-curvature="0" /></g><g
           transform="translate(687.2412,343.3613)"
           id="g52"><path
             id="path54"
             style="fill:#ffffff;fill-opacity:1;fill-rule:nonzero;stroke:none"
             d="m 0,0 c 0,-8.47 -6.865,-15.334 -15.334,-15.334 -8.47,0 -15.334,6.864 -15.334,15.334 0,8.47 6.864,15.334 15.334,15.334 C -6.865,15.334 0,8.47 0,0"
             inkscape:connector-curvature="0" /></g><g
           transform="translate(683.7812,247.0098)"
           id="g56"><path
             id="path58"
             style="fill:#ffffff;fill-opacity:1;fill-rule:nonzero;stroke:none"
             d="m 0,0 c 0,-6.558 -5.315,-11.874 -11.874,-11.874 -6.56,0 -11.874,5.316 -11.874,11.874 v 55.913 c 0,6.559 5.314,11.875 11.874,11.875 C -5.315,67.788 0,62.472 0,55.913 Z"
             inkscape:connector-curvature="0" /></g></g></g></g><rect
     style="fill:none;stroke-width:1.05260885"
     id="rect32"
     width="1119.9336"
     height="221.96881"
     x="0"
     y="0" /><rect
     style="fill:none"
     id="rect53"
     width="1119.9336"
     height="221.96881"
     x="0"
     y="0" /></svg>